P3
4 4
255
4 3 2 30 35 32 6 7 8 125 155 165
0 0 0 60 60 60 0 0 0 0 0 0
0 0 0 0 0 0 36 36 36 0 0 0
135 135 135 0 0 0 0 0 0 160 160 160
